#N canvas 453 230 703 657 10;
#X obj 284 -175 cnv 15 340 67 empty empty empty 20 12 0 14 -257985
-66577 0;
#X text 289 -171 video2sound2video2sound2video2sound2video2sound2video
;
#X obj 152 -61 cnv 15 167 118 empty empty empty 20 12 0 14 -233017
-66577 0;
#X obj 152 -201 cnv 15 107 92 empty empty empty 20 12 0 14 -233017
-66577 0;
#X obj 83 126 pix_hsv2rgb;
#X obj 66 -210 pix_pix2sig~;
#X obj 83 256 pix_texture;
#X msg 331 -308 create \, 1;
#X obj 331 -248 gemwin;
#X obj 83 278 rectangle 4 4;
#X obj 83 196 pix_flip;
#X msg 103 176 horizontal;
#X obj 83 96 pix_sig2pix~;
#X obj 331 -222 block~ 4096;
#X obj 66 -290 pix_video;
#X obj 66 -230 pix_resize 64 64;
#X obj 66 -310 gemhead;
#X obj 66 -270 pix_rgb2hsv;
#X obj 66 -250 pix_rgba;
#X obj 83 -152 *~ 1;
#X obj 99 -122 *~ 1;
#X obj 118 -92 *~ 1;
#X msg 153 236 quality \$1;
#X obj 152 216 tgl 15 0 empty empty empty 17 7 0 10 -262144 -1 -1 0
1;
#X floatatom 159 -176 5 0 0 0 - - -, f 5;
#X floatatom 159 -156 5 0 0 0 - - -, f 5;
#X floatatom 159 -136 5 0 0 0 - - -, f 5;
#X obj 118 58 *~;
#X obj 99 38 *~;
#X obj 83 18 *~;
#X obj 159 -16 osc~;
#X floatatom 159 -36 5 0 0 0 - - -, f 5;
#X obj 198 4 osc~;
#X floatatom 198 -16 5 0 0 0 - - -, f 5;
#X obj 238 24 osc~;
#X floatatom 238 4 5 0 0 0 - - -, f 5;
#X text 157 -196 amplify colour;
#X text 197 -176 red;
#X text 197 -156 green;
#X text 197 -136 blue;
#X text 197 -36 red;
#X text 237 -16 green;
#X text 277 4 blue;
#X text 157 -56 audio waves;
#X obj 103 156 loadbang;
#X text 171 215 pixelate;
#X msg 341 -278 0 \, destroy;
#X text 289 -151 originally by sloev aka antimata55;
#X text 289 -131 antonio roberts 2017 hellocatfood.com;
#X connect 4 0 10 0;
#X connect 5 0 12 0;
#X connect 5 1 19 0;
#X connect 5 2 20 0;
#X connect 5 3 21 0;
#X connect 6 0 9 0;
#X connect 7 0 8 0;
#X connect 10 0 6 0;
#X connect 11 0 10 0;
#X connect 12 0 4 0;
#X connect 14 0 17 0;
#X connect 15 0 5 0;
#X connect 16 0 14 0;
#X connect 17 0 18 0;
#X connect 18 0 15 0;
#X connect 19 0 29 0;
#X connect 20 0 28 0;
#X connect 21 0 27 0;
#X connect 22 0 6 0;
#X connect 23 0 22 0;
#X connect 24 0 19 1;
#X connect 25 0 20 1;
#X connect 26 0 21 1;
#X connect 27 0 12 2;
#X connect 28 0 12 1;
#X connect 29 0 12 0;
#X connect 30 0 29 1;
#X connect 31 0 30 0;
#X connect 32 0 28 1;
#X connect 33 0 32 0;
#X connect 34 0 27 1;
#X connect 35 0 34 0;
#X connect 44 0 11 0;
#X connect 46 0 8 0;
